# xmcd CD database file
#
# Track frame offsets:
#	150
#	28376
#	43077
#	67520
#	85153
#	116084
#	137633
#	155643
#	172487
#	185346
#	206462
#	230265
#	250665
#
# Disc length: 3511 seconds
#
# Revision: 0
# Processed by: cddbd v1.5.2PL0 Copyright (c) Steve Scherf et al.
# Submitted via: CDex 1.51
#
DISCID=b10db50d
DTITLE=Francine Reed - Live at Eddie's Attic
DYEAR=2012
DGENRE=Jazz
TTITLE0=Francine Reed - Trouble In Mind
TTITLE1=Francine Reed - Too Close For Comfort
TTITLE2=Francine Reed - I'm A Handful
TTITLE3=Francine Reed - One Monkey Dont Stop No Show
TTITLE4=Francine Reed - Summertime and  Fever
TTITLE5=Francine Reed - At Last
TTITLE6=Francine Reed - Evil Gal Blues
TTITLE7=Francine Reed - Just In Time
TTITLE8=Francine Reed - Georgia On My Mind
TTITLE9=Francine Reed - Love's In Need Of Love Today
TTITLE10=Francine Reed - Surrender
TTITLE11=Francine Reed - Dream
TTITLE12=Francine Reed - Amazing Grace
EXTD=YEAR: 2012
EXTT0=
EXTT1=
EXTT2=
EXTT3=
EXTT4=
EXTT5=
EXTT6=
EXTT7=
EXTT8=
EXTT9=
EXTT10=
EXTT11=
EXTT12=
PLAYORDER=
